<svg xmlns="http://www.w3.org/2000/svg" viewBox="0 0 822.89 288.9"><defs><style>.cls-1{isolation:isolate;}.cls-2{fill:#3d3d5c;}.cls-3{fill:#b2ce42;}.cls-4{fill:#fff;}.cls-5,.cls-7{opacity:0.19;mix-blend-mode:multiply;}.cls-6,.cls-7{fill:#29a8df;}</style></defs><g class="cls-1"><g id="Capa_2" data-name="Capa 2"><g id="Capa_12" data-name="Capa 12"><path class="cls-2" d="M440.8,47.36l1.26-33a5,5,0,0,0-4.9-5.18l-11.64-.22a5,5,0,0,0-5,5.29v.32A23.77,23.77,0,0,0,413.86,9a19.19,19.19,0,0,0-8.76-2.34h-.38A18.49,18.49,0,0,0,395.53,9a21.34,21.34,0,0,0-6.88,6.06,33.5,33.5,0,0,0-4.16,7.78,42.47,42.47,0,0,0-2.31,8.58,44.75,44.75,0,0,0-.51,8.43,38,38,0,0,0,.45,4.33l-4.69-.14-.18-31a5,5,0,0,0-5-5H360.07a5,5,0,0,0-5,5.07l.41,31-5.84-.18-.18-31a5,5,0,0,0-5-5H332.28a4.85,4.85,0,0,0-1.37.22,5,5,0,0,0-3-1.06h-.24L301.38,8.58a5,5,0,0,0-2.39.76A5,5,0,0,0,295.62,8l-12.34-.22a5,5,0,0,0-5,5.26l.57,11h-.65l-.43-10.81a5,5,0,0,0-4.91-4.8l-12.48-.21a5,5,0,0,0-5,5l.21,48.16a5,5,0,0,0,5,5l13.31-.21a5,5,0,0,0,4.92-5l-.16-15.42h.55l.32,15.57a5,5,0,0,0,5,4.89h12.88a4.88,4.88,0,0,0,2-.42,5,5,0,0,0,1.84.42l28.08.84a5,5,0,0,0,3.09-1.09c.16,0,.32,0,.48,0h25.2a4.7,4.7,0,0,0,1.3-.19,4.57,4.57,0,0,0,1.29.19h25.2a5,5,0,0,0,4.9-4,22.78,22.78,0,0,0,5.75,4,19.58,19.58,0,0,0,8.52,2l.77,0h.1a19.71,19.71,0,0,0,8.41-2.39,20.64,20.64,0,0,0,6.32-5.32c.2-.26.39-.54.59-.81a10.93,10.93,0,0,0,10.56,8.25,11.07,11.07,0,0,0,7.73-3,10.47,10.47,0,0,0,3.36-7.84,10.85,10.85,0,0,0-2.64-7.18A4.85,4.85,0,0,0,440.8,47.36Zm-36-11.13a31.1,31.1,0,0,1,0,4C404.74,38.89,404.75,37.56,404.8,36.23Zm-77.28-4.68A5,5,0,0,0,326,28.86h1.48Zm-1.37,14a4.93,4.93,0,0,0,1.26-3.21l.16-7.28.14,10.53Z"/><path class="cls-2" d="M539.36,13a5,5,0,0,0-4.92-4.87L519.8,7.94A5,5,0,0,0,515,11.46l-.88,2.82-.6-2.65a5,5,0,0,0-4.87-3.9l-18,.43a4.91,4.91,0,0,0-2.44.72,5,5,0,0,0-1.22-.17h-8.19a4.82,4.82,0,0,0-1.9.39,5,5,0,0,0-2.58-.74l-11.64.22a5,5,0,0,0-4.91,4.95l-.42,47.95a5,5,0,0,0,5,5l12.89-.21a5,5,0,0,0,4.92-5.08l-.56-31.55,2.86,1a5.19,5.19,0,0,0,1.59.26,4.94,4.94,0,0,0,1.71-.32V61.94a5,5,0,0,0,5,5l13-.42a5,5,0,0,0,4.83-5.1l-.16-7.71,8.6-.55L516.91,61a5,5,0,0,0,4.92,5.1l13.8.21a5,5,0,0,0,5-5.13Z"/><path class="cls-2" d="M375.39,241.82a27.11,27.11,0,0,0-6.82-7.35,28.88,28.88,0,0,0-10.29-4.58,37.51,37.51,0,0,0-8.86-1c-1.37,0-2.78.06-4.21.19a4.89,4.89,0,0,0-2,.62,5.07,5.07,0,0,0-2.41-.64l-11.23.21a5,5,0,0,0-2.67.84,5,5,0,0,0-3.32-1.26H308.9a5,5,0,0,0-2.21.53,5,5,0,0,0-2.9-1h-.24l-26.25,1.26a4.92,4.92,0,0,0-1.27.24,4.89,4.89,0,0,0-2.06-.46H245.2a5.29,5.29,0,0,0-.8.08,5.09,5.09,0,0,0-2.14-.5l-11.22.21a5.05,5.05,0,0,0-2.68.84,5,5,0,0,0-3.32-1.26h-14.7a5,5,0,0,0-5,4.94l0,2.87c-.12-.16-.24-.33-.37-.49a24.1,24.1,0,0,0-7.16-6,19.26,19.26,0,0,0-8.76-2.35h-.37a18.6,18.6,0,0,0-9.2,2.35,21.45,21.45,0,0,0-6.87,6.07,30,30,0,0,0-1.69,2.61,18.31,18.31,0,0,0-5-5.73c-4.13-3.16-9.46-4.76-15.83-4.76A54,54,0,0,0,137.47,230a5,5,0,0,0-2.94-1H108.28a5,5,0,0,0-5,5l-.21,48.16a5,5,0,0,0,4.85,5l14.22.42a5,5,0,0,0,3.59-1.52,4.94,4.94,0,0,0,1.4-3.78l-.94-15.81,5.61.11a4.94,4.94,0,0,0,.95-.09v15.88a5,5,0,0,0,4.91,5l11.64.21a5,5,0,0,0,3-1,5.06,5.06,0,0,0,3.28,1.22,4.75,4.75,0,0,0,1-.1L170.1,285a5,5,0,0,0,3.47-2.64c.07-.13.12-.26.18-.4a23,23,0,0,0,6.71,5,19.57,19.57,0,0,0,8.52,2h.88a19.85,19.85,0,0,0,8.4-2.39,20.53,20.53,0,0,0,6.32-5.32l.15-.21,0,1.61a5,5,0,0,0,5,5.06H222.1a5,5,0,0,0,4.79-3.55l.19.51a5,5,0,0,0,4.68,3.25h.2l10.71-.42a5,5,0,0,0,4.8-5l-.13-30.33h1.41l-.36,30.5a5,5,0,0,0,5,5.06l13.1-.21a5,5,0,0,0,4.92-5.12l-.72-30.44h1.77l-.13,30.33a5,5,0,0,0,4.85,5l28.08.84a5,5,0,0,0,2.15-.51,4.92,4.92,0,0,0,.86.09h12.39a5,5,0,0,0,4.78-3.55l.2.51a5,5,0,0,0,4.68,3.25h.2l10.71-.42a5,5,0,0,0,2.3-.7,4.85,4.85,0,0,0,1.73.63,42.8,42.8,0,0,0,7.05.61,28.22,28.22,0,0,0,17.5-5.51c6.57-5,10-12.52,10.24-22.33a36.52,36.52,0,0,0-.9-9.4A29.19,29.19,0,0,0,375.39,241.82Zm-73.32,24.81a5,5,0,0,0,1.26-3.21l.21-9.66a5,5,0,0,0-1.61-3.79h1.76l-.22,16.7Zm-113.35-9.3a33.22,33.22,0,0,1,0,4C188.65,260,188.66,258.67,188.72,257.33Z"/><path class="cls-2" d="M696,278l-6.94-15a22.26,22.26,0,0,0,6.27-14.22,17.73,17.73,0,0,0-7.07-15.74c-4.13-3.16-9.46-4.76-15.83-4.76a55,55,0,0,0-13.3,1.86,5.6,5.6,0,0,0-.4-.45,5,5,0,0,0-3.39-1.32h-.24l-26.25,1.26a5,5,0,0,0-4.48,3.4l-.11-.09c-4.12-3.11-9.39-4.68-15.69-4.68A54.63,54.63,0,0,0,595,230.26a5,5,0,0,0-3.75,4.84v1.14l-.06-.08a24.1,24.1,0,0,0-7.16-6,19.26,19.26,0,0,0-8.76-2.35h-.37a18.63,18.63,0,0,0-9.2,2.35,21.45,21.45,0,0,0-6.87,6.07,33.12,33.12,0,0,0-4.17,7.78,42.17,42.17,0,0,0-2.3,8.57,43.24,43.24,0,0,0-.51,8.44,38.48,38.48,0,0,0,.45,4.33l-4.69-.15-.19-31a5,5,0,0,0-5-5H530.23a4.73,4.73,0,0,1-4.41-.84h-.23l-26.25,1.26A4.76,4.76,0,0,0,498,230l-.46,0-14.35-.84h-.3a5,5,0,0,0-4.51,2.85,5,5,0,0,0-4.51-2.85l-.39,0-.82.06c-7.83.33-10.75.4-11.83.4h-.18a5,5,0,0,0-3.09-1.1h-.24l-26.25,1.26a5,5,0,0,0-4.76,5l0,4.42a27.37,27.37,0,0,0-4.82-4.61,28.88,28.88,0,0,0-10.29-4.58,37.53,37.53,0,0,0-8.87-1c-1.36,0-2.77.06-4.21.19a5,5,0,0,0-4.55,5l.42,48.37a5,5,0,0,0,4.18,4.89,42.92,42.92,0,0,0,7.06.61,28.22,28.22,0,0,0,17.5-5.51,25.89,25.89,0,0,0,3.4-3.11v2.85a5,5,0,0,0,4.85,5l28.08.84a5,5,0,0,0,5-5l.1.53a5,5,0,0,0,4.91,4.08l17.15-.21a5,5,0,0,0,4.8-3.86l3.42-14.6-.06,13.23a5,5,0,0,0,4.85,5l28.09.84a4.94,4.94,0,0,0,3.08-1.1,3.91,3.91,0,0,0,.48.05h25.2a5,5,0,0,0,4.91-4,22.81,22.81,0,0,0,5.74,4,19.57,19.57,0,0,0,8.52,2h.88a19.85,19.85,0,0,0,8.4-2.39,20.53,20.53,0,0,0,6.32-5.32c.14-.18.27-.38.41-.57v1.82a5,5,0,0,0,4.91,5l11.64.21a5,5,0,0,0,5-5.06l-.15-12.05a27.44,27.44,0,0,0,11.08-6.13c.08-.07.14-.15.22-.23l-.08,18a5,5,0,0,0,4.85,5l28.08.84a5,5,0,0,0,2.53-.71,4.91,4.91,0,0,0,.67.08l11.64.21a5,5,0,0,1,6.3.21,4.82,4.82,0,0,0,1-.1L692.43,285a5,5,0,0,0,3.55-7ZM653.6,266.63a5,5,0,0,0,1.26-3.21l.21-9.66a5,5,0,0,0-1.61-3.79h1.62v16.7ZM575,257.33a33.22,33.22,0,0,1,0,4C574.91,260,574.91,258.67,575,257.33Zm-49.49-4.67A5.07,5.07,0,0,0,524,250h1.48Zm-1.38,14a4.93,4.93,0,0,0,1.26-3.21l.16-7.27.14,10.52Zm-65.13.08-3.11-.08a5,5,0,0,0,1.26-3.21l.21-9.66a5,5,0,0,0-1.62-3.79h2.13l3.25,17.3A4.91,4.91,0,0,0,459,266.71Z"/><path class="cls-2" d="M294.49,96.79a5,5,0,0,0-4.85-3.8l-37.7,1a5,5,0,0,0-4.78,4L233.39,167.5c-.84-10.15-5.28-18.37-13.16-24.25,5.24-6.38,8-14.4,8.33-23.91a25,25,0,0,0-2.4-12.63A23.07,23.07,0,0,0,218.75,98a34.71,34.71,0,0,0-10.34-4.7A58.18,58.18,0,0,0,197,91.21c-2-.16-4.18-.23-6.39-.23-1.75,0-3.58,0-5.44.14-4.14.22-7.82.55-10.92,1S168.1,93,165,93.63s-5.32,1-6.46,1.33-1.65.4-2,.45a5,5,0,0,0-4.19,4.93v74.07h0l-25.25-.79-.44-75.19a5,5,0,0,0-5-5H94.4a5,5,0,0,0-5,5.07l1.15,87-22-88.7A5,5,0,0,0,63.71,93l-37.7,1a5,5,0,0,0-4.78,4L.09,204.74a5,5,0,0,0,.94,4,5,5,0,0,0,3.62,1.95l26.77,1.88h.36a5,5,0,0,0,4.94-4.27l1.72-11.7H52l2.09,11.84A5,5,0,0,0,59,212.59l.46,0,31.15-2.82a5,5,0,0,0,2-.64,4.94,4.94,0,0,0,3.14,1.13h56.36a5,5,0,0,0,1.83-.35,5,5,0,0,0,2.68,1.25l2.16.29a56.84,56.84,0,0,0,6.55.83c2.59.21,5.65.42,9.1.64,1.45.08,3,.13,4.48.13,2.26,0,4.63-.1,7-.3,4-.32,8-.84,11.89-1.55a53.07,53.07,0,0,0,12.18-3.71,50.32,50.32,0,0,0,10.69-6.35,31,31,0,0,0,7.77-9.11L226,204.74a5,5,0,0,0,4.55,6l26.78,1.88h.35a5,5,0,0,0,4.94-4.27l1.72-11.7h13.57L280,208.46a5,5,0,0,0,4.92,4.13l.45,0,31.16-2.82a5,5,0,0,0,4.4-6.18ZM43.2,163l1.25-8.83L46,162.86Zm152.06,10.66c-1.52,2-3.89,3.22-7.19,3.77l-.27-13.14c3.5.34,6,1.46,7.5,3.32C197.05,169.78,197,171.3,195.26,173.61Zm-7.45-53.52a6.18,6.18,0,0,1,4.2,2.68c1.5,2.25,1.48,4.16-.07,6.6a7.06,7.06,0,0,1-3.88,3.06ZM269.12,163l1.26-8.83,1.57,8.74Z"/><path class="cls-2" d="M822.74,203.57,796.28,96.79a5,5,0,0,0-4.85-3.8l-37.7,1A5,5,0,0,0,749,98L732.43,181.4,731,98.85a5,5,0,0,0-5-4.92l-25.92.47a5,5,0,0,0-4.91,5L695,115.85q-.32-.75-.66-1.5a53.24,53.24,0,0,0-6.66-10.49,34.61,34.61,0,0,0-12.42-9.37,41.7,41.7,0,0,0-17.15-3.84h-.91a46.28,46.28,0,0,0-18.12,3.53,45,45,0,0,0-14.78,10,55.11,55.11,0,0,0-10,14.36,65.29,65.29,0,0,0-3.11,7.47c-.55-10.29-5-18.75-13.41-25.22-8.15-6.21-18.8-9.37-31.66-9.37a117.5,117.5,0,0,0-28.82,4.12,5,5,0,0,0-3.76,4.84V184L512,96.79a5,5,0,0,0-4.85-3.8l-37.71,1a5,5,0,0,0-4.78,4l-14.83,74.93V154.05a5,5,0,0,0-5-5H420.21a5,5,0,0,0-5,5,52.54,52.54,0,0,1-.57,7.27,55.33,55.33,0,0,1-2,8.61,18.69,18.69,0,0,1-3.7,6.82,6.39,6.39,0,0,1-4.36,2.4h-.18c-.66,0-1.65-1.36-2.48-3.38-1.7-4.12-2.7-9.59-3-16.26a91.92,91.92,0,0,1,2.43-24.37c1.76-7,3.61-8.12,3.8-8.21h.25a5.35,5.35,0,0,1,2.68.59c.89.52,1.06,1,1.12,1.13a30.36,30.36,0,0,1,1.22,4,6.47,6.47,0,0,1,.24,2c-.25,1.64-.62,4.11,1.38,6.05a5,5,0,0,0,5.42,1l28.34-11.9a5,5,0,0,0,3-5.19,35,35,0,0,0-3-10.24,48.13,48.13,0,0,0-6.72-10.59,35.33,35.33,0,0,0-12.46-9.34,41.75,41.75,0,0,0-17.16-3.84h-.91a46.2,46.2,0,0,0-18.11,3.53,43.85,43.85,0,0,0-14.73,10,54.24,54.24,0,0,0-9.83,14.46,75.07,75.07,0,0,0-5.7,17A89.9,89.9,0,0,0,358.38,154c-.11,10.73,1.51,20.43,4.81,28.81,3.38,8.61,7.84,15.2,13.24,19.59a46.33,46.33,0,0,0,16.85,8.92,31.53,31.53,0,0,0,8.43,1.19,28.13,28.13,0,0,0,9.64-1.7,27.57,27.57,0,0,0,4.33-2V209a5,5,0,0,0,5,5h24.11a5,5,0,0,0,4.66-3.2l25.37,1.78h.35a5,5,0,0,0,4.94-4.27l1.72-11.7H495.4l2.09,11.84a5,5,0,0,0,4.91,4.13l.46,0L534,209.75a5.3,5.3,0,0,0,.9-.17,4.94,4.94,0,0,0,3.56,1.6l25.93.47a5,5,0,0,0,5-5.06l-.19-14.35,4.46,16.21a5,5,0,0,0,4.82,3.67,4.82,4.82,0,0,0,1-.1l30.22-6.1a5,5,0,0,0,3.54-7l-17.33-37.38.07-.06a48.85,48.85,0,0,0,11.21-15q-.26,3.81-.2,7.68a86.27,86.27,0,0,0,4.44,26.68c2.79,7.93,6.61,14.35,11.36,19.09a48.27,48.27,0,0,0,15.37,10.55A44.87,44.87,0,0,0,655.69,214a45.41,45.41,0,0,0,27.2-8.78,40.41,40.41,0,0,0,11.44-12.56l-.12,14a5,5,0,0,0,5,5l28.73-.47a4.22,4.22,0,0,1,4.42-.48l26.78,1.88h.35a5,5,0,0,0,4.94-4.27l1.72-11.7h13.57l2.09,11.84a5,5,0,0,0,4.91,4.13l.46,0,31.16-2.82a5,5,0,0,0,4.4-6.18ZM572.89,135.39a7.45,7.45,0,0,1-4,3.56l-.28-15.48a6.58,6.58,0,0,1,4.31,3.22A7.92,7.92,0,0,1,572.89,135.39ZM486.59,163l1.26-8.82,1.57,8.73Zm178.78,5a4.72,4.72,0,0,0-1.23-.16,5,5,0,0,0-4.59,3l-.41,1c-.27.51-.67,1.26-1.22,2.21a25.42,25.42,0,0,1-1.77,2.69,8.68,8.68,0,0,1-1.84,1.78,4.12,4.12,0,0,1-1.22.64h0c-1.08,0-3.16-2.77-4.45-10.42a81.54,81.54,0,0,1,.52-29.44c2.15-10.92,4.82-12.27,5-12.34h.29a4.68,4.68,0,0,1,2.47.57,3.45,3.45,0,0,1,1.29,1.25,14.59,14.59,0,0,1,.9,3.53,21.07,21.07,0,0,1,.28,2.66q-.06.74-.15,1.23a5,5,0,0,0,6.82,5.58L694.25,130a4.71,4.71,0,0,0,.63-.33l-.4,45.66Zm105.54-5,1.26-8.82,1.57,8.73Z"/><path class="cls-2" d="M260.6,59.63a5,5,0,0,1-5-5l-.21-48.16a5,5,0,0,1,5-5l12.48.21a5,5,0,0,1,4.91,4.8l.43,10.81h.65l-.57-11a5,5,0,0,1,5-5.26l12.34.21a5,5,0,0,1,4.91,4.81l1.89,48.16a5,5,0,0,1-5,5.19H284.54a5,5,0,0,1-5-4.89L279.22,39l-.55,0,.16,15.43a5,5,0,0,1-4.92,5.05Z"/><path class="cls-2" d="M301.26,59.42a5,5,0,0,1-4.85-5l.21-47.53a5,5,0,0,1,4.76-5L327.63.64h.24a5,5,0,0,1,5,4.82L333.29,17a5,5,0,0,1-5,5.18H326A5,5,0,0,1,327.62,26l-.21,9.66a4.93,4.93,0,0,1-1.26,3.21l3.11.08a5,5,0,0,1,4.87,4.91l.21,11.34a5,5,0,0,1-5,5.09Z"/><path class="cls-2" d="M332.91,59.21a5,5,0,0,1-5-4.93l-.63-47.74a5,5,0,0,1,5-5.07h12.18a5,5,0,0,1,5,5l.18,31,8.63.26a5,5,0,0,1,4.84,5V54.21a5,5,0,0,1-5,5Z"/><path class="cls-2" d="M360.7,59.21a5,5,0,0,1-5-4.93l-.63-47.74a5,5,0,0,1,5-5.07h12.18a5,5,0,0,1,5,5l.18,31,8.63.26a5,5,0,0,1,4.84,5V54.21a5,5,0,0,1-5,5Z"/><path class="cls-2" d="M405.07,61.11a19.57,19.57,0,0,1-8.52-2A23.12,23.12,0,0,1,389,53.27a29.21,29.21,0,0,1-5.14-9,36.23,36.23,0,0,1-2.16-11.08,44.7,44.7,0,0,1,.51-8.43,42.29,42.29,0,0,1,2.31-8.58,33.3,33.3,0,0,1,4.16-7.78,21.49,21.49,0,0,1,6.88-6.07A18.59,18.59,0,0,1,404.72,0h.38a19.32,19.32,0,0,1,8.76,2.35,24.25,24.25,0,0,1,7.16,6,28.39,28.39,0,0,1,5,10,44.59,44.59,0,0,1,1.64,13,47.12,47.12,0,0,1-.79,7.65,37.24,37.24,0,0,1-2.26,7.55,29.16,29.16,0,0,1-3.93,6.8,20.64,20.64,0,0,1-6.32,5.32,19.85,19.85,0,0,1-8.41,2.39h-.87Zm-.27-31.57c-.05,1.34-.06,2.67,0,4A31.26,31.26,0,0,0,404.8,29.54Z"/><path class="cls-2" d="M431.82,60.82a10.91,10.91,0,0,1-10.88-10.88,11,11,0,0,1,1.47-5.57,12.2,12.2,0,0,1,.78-1.19,5,5,0,0,1-.77-2.4L420.53,7.53a5,5,0,0,1,5-5.29l11.64.21A5,5,0,0,1,440.7,4a4.91,4.91,0,0,1,1.36,3.62l-1.26,33a4.85,4.85,0,0,1-.53,2.08,10.83,10.83,0,0,1,2.64,7.18,10.51,10.51,0,0,1-3.36,7.84A11.07,11.07,0,0,1,431.82,60.82Z"/><path class="cls-2" d="M462.41,59.84a5,5,0,0,1-5-5l.42-47.95a5,5,0,0,1,4.91-5l11.64-.21a5,5,0,0,1,3.47,1.4,5.08,5.08,0,0,1,1.53,3.51l.84,48a5.05,5.05,0,0,1-1.41,3.57,5,5,0,0,1-3.51,1.52Z"/><path class="cls-2" d="M484.11,24.21a5.17,5.17,0,0,1-1.59-.25l-3.15-1.05A5,5,0,0,1,476,17.34l0-.14a5,5,0,0,1-2.79-5l.63-5.67a5,5,0,0,1,5-4.45h8.19a5,5,0,0,1,5,4.82l.21,5.88a5.06,5.06,0,0,1-.52,2.42l-3.15,6.3A5,5,0,0,1,484.11,24.21Z"/><path class="cls-2" d="M490.82,60.26a5,5,0,0,1-5-5V6.47a5,5,0,0,1,4.89-5l18-.42A5,5,0,0,1,513.55,5l.6,2.65L515,4.78a5,5,0,0,1,4.77-3.52l14.64.21a5,5,0,0,1,4.92,4.87l1.26,48.16a5,5,0,0,1-5,5.13l-13.8-.21a5,5,0,0,1-4.92-5.1l.16-7.84-8.6.55.16,7.71a5,5,0,0,1-4.83,5.1Z"/><path class="cls-3" d="M260.39,6.47l12.39.21.63,15.61h10.71l-.84-16.24,12.25.21,1.89,48.16H284.54l-.42-20.37-10.5-.21.21,20.58-13.23.21Z"/><path class="cls-3" d="M301.62,6.89l26.25-1.26.42,11.55H314.22l-.63,8.26,9,.42-.21,9.66-8.82-.21-.21,8.19,15.75.42.21,11.34-27.93-.84Z"/><path class="cls-3" d="M332.28,6.47h12.18l.21,35.77,13.44.42V54.21h-25.2Z"/><path class="cls-3" d="M360.07,6.47h12.18l.21,35.77,13.44.42V54.21H360.7Z"/><path class="cls-3" d="M405.64,56.1a14.47,14.47,0,0,1-6.93-1.47A18,18,0,0,1,392.76,50a24.1,24.1,0,0,1-4.24-7.45A31.28,31.28,0,0,1,386.67,33a38.62,38.62,0,0,1,.45-7.45,37.46,37.46,0,0,1,2-7.56,28.5,28.5,0,0,1,3.54-6.62A16.43,16.43,0,0,1,398,6.72,13.72,13.72,0,0,1,405,5a14.1,14.1,0,0,1,6.47,1.75,19,19,0,0,1,5.67,4.8,22.93,22.93,0,0,1,4.06,8.26,39.06,39.06,0,0,1,1.44,11.51,41.69,41.69,0,0,1-.7,6.79,32.43,32.43,0,0,1-2,6.55,23.94,23.94,0,0,1-3.26,5.63,15.4,15.4,0,0,1-4.79,4A14.77,14.77,0,0,1,405.64,56.1ZM404.17,17c-1.07.24-2,1.33-2.77,3.29a24.25,24.25,0,0,0-1.47,7,57.9,57.9,0,0,0-.07,8A18.23,18.23,0,0,0,401.44,42c.88,1.84,2,2.76,3.36,2.76q3.36,0,4.55-7.21A36.67,36.67,0,0,0,409,23.38Q407.39,16.41,404.17,17Z"/><path class="cls-3" d="M427.41,40.49,425.52,7.24l11.55.21-1.26,33Zm4.41,3.36a6.11,6.11,0,0,1,6.09,6.09,5.53,5.53,0,0,1-1.79,4.2,6,6,0,0,1-4.3,1.68,5.7,5.7,0,0,1-4.13-1.71,5.61,5.61,0,0,1-1.75-4.17,6.15,6.15,0,0,1,.8-3.08,6,6,0,0,1,2.17-2.2A5.61,5.61,0,0,1,431.82,43.85Z"/><path class="cls-3" d="M462.83,6.89l11.55-.21.84,48-12.81.21Z"/><path class="cls-3" d="M487.05,7l.21,5.88-3.15,6.3L481,18.16l.84-5-3.57-.42L478.86,7Z"/><path class="cls-3" d="M490.82,6.47l17.85-.42,4.63,20.44h.2l6.31-20.23,14.56.21,1.26,48.16-13.73-.21.64-30h-.85l-3.56,17-9.88.63-4.61-17.22L503,25l.64,29.82-12.82.42Z"/><path class="cls-2" d="M107.92,280.53a5,5,0,0,1-4.85-5l.21-48.16a5,5,0,0,1,5-5h26.25a5,5,0,0,1,5,4.82l.42,11.55a5,5,0,0,1-3.23,4.86,5.11,5.11,0,0,1,.29,1.8l-.21,9.66a5,5,0,0,1-5,4.89l-5.61-.11.94,15.81a5,5,0,0,1-5,5.3Z"/><path class="cls-2" d="M155.6,281.16a5,5,0,0,1-3.28-1.23,5,5,0,0,1-3,1l-11.64-.21a5,5,0,0,1-4.91-5V228.42a5,5,0,0,1,3.76-4.84,55.19,55.19,0,0,1,13.57-1.93c6.37,0,11.7,1.6,15.83,4.75A17.76,17.76,0,0,1,173,242.15a22.25,22.25,0,0,1-6.26,14.22l6.93,15a5,5,0,0,1-3.55,7l-13.51,2.73A4.75,4.75,0,0,1,155.6,281.16Z"/><path class="cls-2" d="M189,282.22a19.57,19.57,0,0,1-8.52-2,23.25,23.25,0,0,1-7.58-5.87,29,29,0,0,1-5.13-9,35.94,35.94,0,0,1-2.16-11.09,43.19,43.19,0,0,1,.51-8.43,41.79,41.79,0,0,1,2.3-8.58,33.25,33.25,0,0,1,4.17-7.77,21.45,21.45,0,0,1,6.87-6.07,18.6,18.6,0,0,1,9.2-2.35H189a19,19,0,0,1,8.76,2.35,24.1,24.1,0,0,1,7.16,6,28.15,28.15,0,0,1,5,10,44.87,44.87,0,0,1,1.63,13,47.35,47.35,0,0,1-.78,7.66,38.77,38.77,0,0,1-2.26,7.55,29.18,29.18,0,0,1-3.94,6.8,20.53,20.53,0,0,1-6.32,5.32,19.85,19.85,0,0,1-8.4,2.39h-.11Zm-.26-31.57c-.06,1.33-.07,2.66,0,4A33,33,0,0,0,188.72,250.65Z"/><path class="cls-2" d="M231.76,281.16a5,5,0,0,1-4.68-3.25l-.19-.51A5,5,0,0,1,222.1,281H209.71a5,5,0,0,1-5-5.07l.63-48.79a5,5,0,0,1,5-4.93H225a5,5,0,0,1,3.32,1.26,5,5,0,0,1,2.68-.84l11.22-.21a5,5,0,0,1,5,5l.21,48.37a5,5,0,0,1-4.8,5l-10.71.42Z"/><path class="cls-2" d="M253.39,281a5,5,0,0,1-5-5.06l.36-30.5H245a5,5,0,0,1-5-5.08l.21-12.6a5,5,0,0,1,5-4.92H274a5,5,0,0,1,5,4.66l.84,12.39a5,5,0,0,1-5,5.34h-4.12l.72,30.44a5,5,0,0,1-4.92,5.12Z"/><path class="cls-2" d="M277.18,280.53a5,5,0,0,1-4.85-5l.21-47.53a5,5,0,0,1,4.76-5l26.25-1.26h.24a5,5,0,0,1,5,4.82l.42,11.55a5,5,0,0,1-5,5.18h-2.28a5,5,0,0,1,1.61,3.79l-.21,9.66a5.06,5.06,0,0,1-1.26,3.21l3.11.08a5,5,0,0,1,4.87,4.91l.21,11.34a5,5,0,0,1-5,5.09Z"/><path class="cls-2" d="M330.32,281.16a5,5,0,0,1-4.68-3.25l-.2-.51a5,5,0,0,1-4.78,3.55H308.27a5,5,0,0,1-5-5.07l.63-48.79a5,5,0,0,1,5-4.93h14.7a5,5,0,0,1,3.32,1.26,4.93,4.93,0,0,1,2.67-.84l11.23-.21a5,5,0,0,1,5,5l.21,48.37a5,5,0,0,1-4.8,5l-10.71.42Z"/><path class="cls-2" d="M352.31,281.28a42.8,42.8,0,0,1-7.05-.61,5,5,0,0,1-4.19-4.89l-.42-48.37a5,5,0,0,1,4.56-5c1.43-.13,2.84-.19,4.21-.19a37.51,37.51,0,0,1,8.86,1,28.88,28.88,0,0,1,10.29,4.58,26.93,26.93,0,0,1,6.82,7.34,29.24,29.24,0,0,1,3.76,8.91,36.48,36.48,0,0,1,.9,9.39c-.22,9.82-3.67,17.35-10.24,22.34A28.28,28.28,0,0,1,352.31,281.28Z"/><path class="cls-2" d="M405.23,281.28a42.92,42.92,0,0,1-7.06-.61,5,5,0,0,1-4.18-4.89l-.42-48.37a5,5,0,0,1,4.55-5c1.44-.13,2.85-.19,4.21-.19a37.53,37.53,0,0,1,8.87,1,28.88,28.88,0,0,1,10.29,4.58,26.93,26.93,0,0,1,6.82,7.34,29.22,29.22,0,0,1,3.75,8.91,35.62,35.62,0,0,1,.9,9.39c-.22,9.82-3.66,17.35-10.23,22.34A28.28,28.28,0,0,1,405.23,281.28Z"/><path class="cls-2" d="M431,280.53a5,5,0,0,1-4.85-5l.21-47.53a5,5,0,0,1,4.76-5l26.25-1.26h.24a5,5,0,0,1,5,4.82l.42,11.55a5,5,0,0,1-5,5.18h-2.29a5,5,0,0,1,1.62,3.79l-.21,9.66a5.06,5.06,0,0,1-1.26,3.21L459,260a5,5,0,0,1,4.87,4.91l.21,11.34a5,5,0,0,1-5,5.09Z"/><path class="cls-2" d="M469.05,281a5,5,0,0,1-4.91-4.08l-9-47.84a5.53,5.53,0,0,1-.14-.83,5,5,0,0,1,5-5.41,4.74,4.74,0,0,1,.75.06h.07c1.08,0,4-.07,11.83-.4l.82-.07h.39a5,5,0,0,1,4.51,2.85,5,5,0,0,1,4.51-2.85h.3l14.35.84a5,5,0,0,1,4.57,6.13L491,276.88a5,5,0,0,1-4.8,3.86Z"/><path class="cls-2" d="M499.21,280.53a5,5,0,0,1-4.85-5l.21-47.53a5,5,0,0,1,4.77-5l26.25-1.26h.23a5,5,0,0,1,5,4.82l.42,11.55a5,5,0,0,1-5,5.18H524a5,5,0,0,1,1.61,3.79l-.21,9.66A5,5,0,0,1,524.1,260l3.12.08a5,5,0,0,1,4.86,4.91l.21,11.34a5,5,0,0,1-5,5.09Z"/><path class="cls-2" d="M530.86,280.32a5,5,0,0,1-5-4.94l-.63-47.74a5,5,0,0,1,1.45-3.57,5,5,0,0,1,3.55-1.49h12.18a5,5,0,0,1,5,5l.19,30.95,8.62.27a5,5,0,0,1,4.84,5v11.55a5,5,0,0,1-5,5Z"/><path class="cls-2" d="M575.23,282.22a19.57,19.57,0,0,1-8.52-2,23.25,23.25,0,0,1-7.58-5.87,29.2,29.2,0,0,1-5.13-9,35.94,35.94,0,0,1-2.16-11.09,43.19,43.19,0,0,1,.51-8.43,42.44,42.44,0,0,1,2.3-8.58,33.25,33.25,0,0,1,4.17-7.77,21.45,21.45,0,0,1,6.87-6.07,18.63,18.63,0,0,1,9.2-2.35h.37a19,19,0,0,1,8.76,2.35,24.1,24.1,0,0,1,7.16,6,28.15,28.15,0,0,1,5,10,44.87,44.87,0,0,1,1.63,13,46.25,46.25,0,0,1-.78,7.66,38.09,38.09,0,0,1-2.26,7.55,29.18,29.18,0,0,1-3.94,6.8,20.53,20.53,0,0,1-6.32,5.32,19.85,19.85,0,0,1-8.4,2.39H576ZM575,250.65c-.06,1.33-.06,2.66,0,4A33,33,0,0,0,575,250.65Z"/><path class="cls-2" d="M596.15,280.74a5,5,0,0,1-4.91-5V228.42a5,5,0,0,1,3.75-4.84,54.63,54.63,0,0,1,13.56-1.94c6.3,0,11.57,1.57,15.69,4.68A17.56,17.56,0,0,1,631.33,242a22.41,22.41,0,0,1-7.61,15.7,27.44,27.44,0,0,1-11.08,6.13l.15,12a5,5,0,0,1-5,5.07Z"/><path class="cls-2" d="M628.71,280.53a5,5,0,0,1-4.85-5l.21-47.53a5,5,0,0,1,4.76-5l26.25-1.26h.24a5,5,0,0,1,5,4.82l.42,11.55a5,5,0,0,1-5,5.18h-2.28a5,5,0,0,1,1.61,3.79l-.21,9.66A5,5,0,0,1,653.6,260l3.11.08a5,5,0,0,1,4.87,4.91l.21,11.34a5,5,0,0,1-5,5.09Z"/><path class="cls-2" d="M677.93,281.16a5,5,0,0,0-6.3-.21L660,280.74a5,5,0,0,1-4.91-5V228.42a5,5,0,0,1,3.76-4.84,55.13,55.13,0,0,1,13.57-1.93c6.37,0,11.7,1.6,15.83,4.75a17.76,17.76,0,0,1,7.07,15.75A22.26,22.26,0,0,1,689,256.37l6.94,15a5,5,0,0,1-3.55,7l-13.51,2.73A4.82,4.82,0,0,1,677.93,281.16Z"/><path class="cls-3" d="M108.28,227.37h26.25l.42,11.55-13.86-.63-.21,6.58,11.13.42L131.8,255l-10.92-.21L122.14,276l-14.07-.42Z"/><path class="cls-3" d="M137.75,275.74V228.42q16.88-4.33,25.13,2A12.73,12.73,0,0,1,168,241.86a17.74,17.74,0,0,1-6.09,12.25l-1.26,1,8.47,18.27-13.51,2.73L151,259.36l-.59.14a4.49,4.49,0,0,1-.67.1,2.1,2.1,0,0,0-.63.18L149.3,276Zm11.13-39.34.21,11.83c2.8.05,4.79-1,5.95-3a5.73,5.73,0,0,0,0-6.12C153.82,237.05,151.78,236.17,148.88,236.4Z"/><path class="cls-3" d="M189.55,277.21a14.59,14.59,0,0,1-6.93-1.47,18.12,18.12,0,0,1-6-4.62,23.94,23.94,0,0,1-4.23-7.46,30.87,30.87,0,0,1-1.86-9.55,38.74,38.74,0,0,1,.46-7.46,36.52,36.52,0,0,1,2-7.56,28,28,0,0,1,3.53-6.61,16.39,16.39,0,0,1,5.29-4.66,13.55,13.55,0,0,1,7-1.71,14.17,14.17,0,0,1,6.48,1.75,19.33,19.33,0,0,1,5.67,4.79,23.35,23.35,0,0,1,4.06,8.26,39.44,39.44,0,0,1,1.43,11.52,40.61,40.61,0,0,1-.7,6.79,32.15,32.15,0,0,1-2,6.54,23.78,23.78,0,0,1-3.25,5.64,15.54,15.54,0,0,1-4.8,4A14.78,14.78,0,0,1,189.55,277.21Zm-1.47-39.13q-1.61.34-2.76,3.29a24.25,24.25,0,0,0-1.47,7,56.54,56.54,0,0,0-.07,8,18.13,18.13,0,0,0,1.57,6.75q1.34,2.77,3.36,2.77,3.36,0,4.55-7.21a36.53,36.53,0,0,0-.38-14.18Q191.31,237.52,188.08,238.08Z"/><path class="cls-3" d="M210.34,227.16H225l7.77,25.06h.42l-2.1-24.64,11.13-.21.21,48.37-10.71.42L221.26,248h-.84L222.1,276H209.71Z"/><path class="cls-3" d="M253.81,240.39H245l.21-12.6H274l.84,12.39h-9.24l.84,35.56-13,.21Z"/><path class="cls-3" d="M277.54,228l26.25-1.26.42,11.55H290.14l-.63,8.26,9,.42-.21,9.66-8.82-.21-.21,8.19,15.75.42.21,11.34-27.93-.84Z"/><path class="cls-3" d="M308.9,227.16h14.7l7.77,25.06h.42l-2.1-24.64,11.13-.21.21,48.37-10.71.42L319.82,248H319L320.66,276H308.27Z"/><path class="cls-3" d="M345.65,227.37a35.06,35.06,0,0,1,11.44.7,23.74,23.74,0,0,1,8.51,3.74,22,22,0,0,1,5.56,6,24.12,24.12,0,0,1,3.12,7.38,31.27,31.27,0,0,1,.77,8.09q-.29,12.46-8.26,18.51t-20.72,4Zm10.5,36.82a5,5,0,0,0,4.37-2.21,11.64,11.64,0,0,0,2.21-5.77,29.49,29.49,0,0,0,0-6.9,12.28,12.28,0,0,0-2.17-5.95,5.32,5.32,0,0,0-4.44-2.48Z"/><path class="cls-3" d="M398.57,227.37a35.06,35.06,0,0,1,11.44.7,23.74,23.74,0,0,1,8.51,3.74,22,22,0,0,1,5.56,6,24.12,24.12,0,0,1,3.12,7.38,31.27,31.27,0,0,1,.77,8.09q-.29,12.46-8.26,18.51t-20.72,4Zm10.5,36.82a5,5,0,0,0,4.37-2.21,11.64,11.64,0,0,0,2.21-5.77,29.49,29.49,0,0,0,0-6.9,12.28,12.28,0,0,0-2.17-5.95,5.32,5.32,0,0,0-4.44-2.48Z"/><path class="cls-3" d="M431.33,228l26.25-1.26.42,11.55H443.93l-.63,8.26,9,.42-.21,9.66-8.82-.21-.21,8.19,15.75.42.21,11.34-27.93-.84Z"/><path class="cls-3" d="M469.06,276l-9-48.16q-.36.21,13-.35l.91-.07,4.2,34.51h.63l4.2-34.51,14.35.84-11.13,47.53Z"/><path class="cls-3" d="M499.57,228l26.25-1.26.42,11.55H512.18l-.63,8.26,9,.42-.21,9.66-8.81-.21-.22,8.19,15.75.42.22,11.34-27.94-.84Z"/><path class="cls-3" d="M530.23,227.58h12.18l.21,35.77,13.44.42v11.55h-25.2Z"/><path class="cls-3" d="M575.8,277.21a14.59,14.59,0,0,1-6.93-1.47,18.12,18.12,0,0,1-6-4.62,24.14,24.14,0,0,1-4.23-7.46,30.87,30.87,0,0,1-1.86-9.55,38.74,38.74,0,0,1,.46-7.46,36.52,36.52,0,0,1,2-7.56,28,28,0,0,1,3.53-6.61,16.39,16.39,0,0,1,5.29-4.66,13.57,13.57,0,0,1,7-1.71,14.17,14.17,0,0,1,6.48,1.75,19.33,19.33,0,0,1,5.67,4.79,23.35,23.35,0,0,1,4.06,8.26,39.44,39.44,0,0,1,1.43,11.52,40.61,40.61,0,0,1-.7,6.79,32.15,32.15,0,0,1-2,6.54,23.78,23.78,0,0,1-3.25,5.64,15.54,15.54,0,0,1-4.8,4A14.78,14.78,0,0,1,575.8,277.21Zm-1.47-39.13q-1.61.34-2.76,3.29a24.25,24.25,0,0,0-1.47,7,56.54,56.54,0,0,0-.07,8,18.13,18.13,0,0,0,1.57,6.75q1.33,2.77,3.36,2.77,3.36,0,4.55-7.21a36.53,36.53,0,0,0-.38-14.18Q577.56,237.52,574.33,238.08Z"/><path class="cls-3" d="M596.24,275.74V228.42q16.72-4.33,25,1.89a12.55,12.55,0,0,1,5.11,11.41,17.53,17.53,0,0,1-6,12.32,22.88,22.88,0,0,1-12.74,5.74l.21,16.17Zm11.13-39.34.21,11.83a6.13,6.13,0,0,0,5.78-9.17C612.21,237.05,610.22,236.17,607.37,236.4Z"/><path class="cls-3" d="M629.07,228l26.25-1.26.42,11.55H641.67l-.63,8.26,9,.42-.21,9.66-8.82-.21-.21,8.19,15.75.42.21,11.34-27.93-.84Z"/><path class="cls-3" d="M660.08,275.74V228.42q16.88-4.33,25.13,2a12.73,12.73,0,0,1,5.11,11.48,17.74,17.74,0,0,1-6.09,12.25l-1.26,1,8.47,18.27-13.51,2.73-4.62-16.8-.59.14a4.69,4.69,0,0,1-.67.1,2.1,2.1,0,0,0-.63.18l.21,16.17Zm11.13-39.34.21,11.83q4.2.08,6-3a5.75,5.75,0,0,0,0-6.12C676.14,237.05,674.1,236.17,671.21,236.4Z"/><path class="cls-2" d="M59,202a5,5,0,0,1-4.92-4.13L52,186H38.44l-1.72,11.7A5,5,0,0,1,31.78,202h-.36L4.65,200.07A5,5,0,0,1,1,198.12a5,5,0,0,1-.94-4L21.23,87.34a5,5,0,0,1,4.78-4l37.7-.94a5,5,0,0,1,4.86,3.79L95,192.94a5,5,0,0,1-4.41,6.19l-31.15,2.81A3.62,3.62,0,0,1,59,202ZM43.2,152.32l2.82-.09-1.57-8.73Z"/><path class="cls-2" d="M95.81,199.62a5,5,0,0,1-5-4.94L89.4,87.9a5,5,0,0,1,5-5.06h27.24a5,5,0,0,1,5,5l.44,75.19,25.25.78a5,5,0,0,1,4.84,5v25.84a5,5,0,0,1-5,5Z"/><path class="cls-2" d="M179,202.4c-1.52,0-3,0-4.48-.13-3.45-.22-6.51-.43-9.1-.63a56.52,56.52,0,0,1-6.55-.84l-2.16-.29a5,5,0,0,1-4.34-4.95V89.71a5,5,0,0,1,4.19-4.93c.31,0,.91-.17,2-.45S161.74,83.6,165,83s6.28-1.1,9.31-1.52,6.78-.77,10.92-1c1.86-.1,3.69-.15,5.44-.15,2.21,0,4.36.08,6.39.23a58.93,58.93,0,0,1,11.4,2,34.71,34.71,0,0,1,10.34,4.7,23.11,23.11,0,0,1,7.41,8.76,24.93,24.93,0,0,1,2.4,12.62c-.29,9.52-3.09,17.53-8.33,23.91,10.12,7.56,14.61,19,13,33.38a37.71,37.71,0,0,1-4,14.1,31.36,31.36,0,0,1-8.48,10.39,49.9,49.9,0,0,1-10.69,6.35,53.59,53.59,0,0,1-12.18,3.72c-3.93.7-7.94,1.22-11.89,1.54C183.6,202.3,181.23,202.4,179,202.4Zm9.1-35.65c3.3-.54,5.67-1.79,7.19-3.76,1.78-2.31,1.79-3.84,0-6.06-1.48-1.86-4-3-7.5-3.32Zm0-44.95a7.09,7.09,0,0,0,3.88-3c1.55-2.45,1.57-4.36.07-6.61a6.21,6.21,0,0,0-4.2-2.67Z"/><path class="cls-2" d="M284.94,202a5,5,0,0,1-4.92-4.13L277.93,186H264.36l-1.72,11.7A5,5,0,0,1,257.7,202h-.35l-26.78-1.88a5,5,0,0,1-4.55-6L247.16,87.34a5,5,0,0,1,4.78-4l37.7-.94a5,5,0,0,1,4.85,3.79L321,192.94a5,5,0,0,1-4.4,6.19l-31.16,2.81A3.39,3.39,0,0,1,284.94,202Zm-15.82-49.64,2.83-.09-1.57-8.73Z"/><path class="cls-2" d="M420.68,203.37a5,5,0,0,1-5-5v-.18a28.39,28.39,0,0,1-14,3.68,31.51,31.51,0,0,1-8.43-1.18,46.35,46.35,0,0,1-16.85-8.93c-5.4-4.39-9.86-11-13.24-19.58-3.3-8.39-4.92-18.08-4.81-28.81A90.07,90.07,0,0,1,360.21,125a75.07,75.07,0,0,1,5.7-17,54.4,54.4,0,0,1,9.83-14.46,44,44,0,0,1,14.73-10A46,46,0,0,1,408.58,80h.91a41.91,41.91,0,0,1,17.16,3.84,35.33,35.33,0,0,1,12.46,9.34,48.13,48.13,0,0,1,6.72,10.59,35.09,35.09,0,0,1,3,10.25,5,5,0,0,1-3,5.18l-28.34,11.9a5,5,0,0,1-5.42-1c-2-1.94-1.63-4.41-1.38-6a6.47,6.47,0,0,0-.24-2,30.84,30.84,0,0,0-1.22-4c-.06-.16-.23-.6-1.12-1.12a5.35,5.35,0,0,0-2.68-.59h-.25c-.19.09-2,1.21-3.8,8.21a91.92,91.92,0,0,0-2.43,24.37c.29,6.67,1.29,12.15,3,16.27.83,2,1.82,3.37,2.48,3.37h.18a6.41,6.41,0,0,0,4.36-2.39,18.77,18.77,0,0,0,3.7-6.82,55.7,55.7,0,0,0,2-8.62,52.54,52.54,0,0,0,.57-7.27,5,5,0,0,1,5-5h24.58a5,5,0,0,1,5,5v55a5,5,0,0,1-5,5Z"/><path class="cls-2" d="M502.4,202a5,5,0,0,1-4.91-4.13L495.4,186H481.83l-1.72,11.7a5,5,0,0,1-4.94,4.27h-.35L448,200.07a5,5,0,0,1-4.55-6L464.62,87.34a5,5,0,0,1,4.78-4l37.71-.94A5,5,0,0,1,512,86.16l26.46,106.78a5,5,0,0,1-4.4,6.19l-31.16,2.81A3.54,3.54,0,0,1,502.4,202Zm-15.81-49.64,2.83-.09-1.57-8.73Z"/><path class="cls-2" d="M578.5,201.5a5,5,0,0,1-4.82-3.68l-4.46-16.21.19,14.35a5,5,0,0,1-5,5.07l-25.93-.48a5,5,0,0,1-4.91-5V89.71a5,5,0,0,1,3.76-4.84,117.45,117.45,0,0,1,28.82-4.11c12.86,0,23.51,3.15,31.66,9.36,9.62,7.43,14.12,17.5,13.39,29.95-.7,11.73-5.82,22.08-15.21,30.77l-.07.06,17.33,37.39a5,5,0,0,1-3.54,7l-30.22,6.11A5.63,5.63,0,0,1,578.5,201.5Zm-9.66-73.17a7.46,7.46,0,0,0,4-3.57,7.92,7.92,0,0,0,0-8.7,6.58,6.58,0,0,0-4.31-3.22Z"/><path class="cls-2" d="M655.69,203.37a44.87,44.87,0,0,1-17.52-3.52,48.39,48.39,0,0,1-15.37-10.54c-4.75-4.75-8.57-11.17-11.36-19.1A86.21,86.21,0,0,1,607,143.53a89.16,89.16,0,0,1,1.58-18.45,69.15,69.15,0,0,1,5.75-17.21,55.45,55.45,0,0,1,10-14.36,44.83,44.83,0,0,1,14.78-10A46.11,46.11,0,0,1,657.21,80h.91a41.86,41.86,0,0,1,17.15,3.84,34.51,34.51,0,0,1,12.42,9.38,52.89,52.89,0,0,1,6.66,10.48,31,31,0,0,1,3,10.67,5,5,0,0,1-3.06,5l-28.19,11.74a5,5,0,0,1-1.92.39,5,5,0,0,1-4.9-6q.09-.5.15-1.23a21.07,21.07,0,0,0-.28-2.66,14.84,14.84,0,0,0-.9-3.53,3.35,3.35,0,0,0-1.29-1.24,4.58,4.58,0,0,0-2.47-.57h-.29c-.18.07-2.85,1.43-5,12.34a81.54,81.54,0,0,0-.52,29.44c1.29,7.65,3.37,10.43,4.45,10.43h0a4.18,4.18,0,0,0,1.22-.65,8.9,8.9,0,0,0,1.84-1.77,25.55,25.55,0,0,0,1.77-2.7c.55-1,1-1.69,1.22-2.21l.41-1a5,5,0,0,1,4.59-3,5.17,5.17,0,0,1,1.23.15l29.74,7.51a5,5,0,0,1,3.64,6,40.11,40.11,0,0,1-15.86,23.7A45.41,45.41,0,0,1,655.69,203.37Z"/><path class="cls-2" d="M699.21,201a5,5,0,0,1-5-5.05l.94-107.25a5,5,0,0,1,4.91-5L726,83.31a5,5,0,0,1,5,4.91l1.88,107.25a5,5,0,0,1-4.92,5.08Z"/><path class="cls-2" d="M786.72,202a5,5,0,0,1-4.91-4.13L779.72,186H766.15l-1.72,11.7a5,5,0,0,1-4.94,4.27h-.35l-26.78-1.88a5,5,0,0,1-4.55-6L749,87.34a5,5,0,0,1,4.78-4l37.7-.94a5,5,0,0,1,4.85,3.79l26.46,106.78a5,5,0,0,1-.78,4.11,5.06,5.06,0,0,1-3.62,2.08l-31.16,2.81A3.46,3.46,0,0,1,786.72,202Zm-15.81-49.64,2.83-.09-1.57-8.73Z"/><path class="cls-4" d="M31.77,197,5,195.09,26.14,88.31l37.57-.94L90.17,194.15,59,197,56.2,181H34.12Zm5.64-39.45L52,157l-7-39.14H43.05Z"/><path class="cls-4" d="M94.4,87.84h27.24l.47,80,30.06.94v25.84H95.81Z"/><path class="cls-4" d="M212.29,133.55q18.48,9.55,16,31.94a32.68,32.68,0,0,1-3.44,12.29,26.37,26.37,0,0,1-7.13,8.77,45,45,0,0,1-9.63,5.72,47.82,47.82,0,0,1-11,3.36q-5.72,1-11.43,1.49a75.85,75.85,0,0,1-10.81.16q-5.08-.32-9-.63a50.52,50.52,0,0,1-6.1-.78l-2.35-.31V89.71c.62-.1,1.43-.28,2.42-.54s3-.68,6.11-1.26S172,86.85,175,86.43s6.47-.73,10.49-.94a88.17,88.17,0,0,1,11.2.08,52.11,52.11,0,0,1,10.41,1.88,29.47,29.47,0,0,1,8.84,4,18.1,18.1,0,0,1,5.8,6.89,20.07,20.07,0,0,1,1.88,10.17Q223.09,124.48,212.29,133.55Zm-29.12-6.1q9.08.15,13-6t0-12.06q-3.91-5.86-13.47-5.08Zm0,44.62q11.28.17,16.05-6t0-12.21q-4.78-6-16.52-5.25Z"/><path class="cls-4" d="M257.7,197l-26.78-1.87L252.06,88.31l37.58-.94L316.1,194.15,284.94,197l-2.82-16H260.05Zm5.63-39.45,14.56-.47-7-39.14H269Z"/><path class="cls-4" d="M443.85,114.61l-28.33,11.9c-.11-.1-.08-.68.07-1.72a10.77,10.77,0,0,0-.31-3.92,38.36,38.36,0,0,0-1.41-4.62,7.19,7.19,0,0,0-3.29-3.68,10.55,10.55,0,0,0-5.87-1.25q-5.32.47-8.22,12a96.84,96.84,0,0,0-2.58,25.75q.46,11,3.36,18t7.91,6.42a11.33,11.33,0,0,0,7.52-4.07,23.75,23.75,0,0,0,4.69-8.61,59.74,59.74,0,0,0,2.2-9.4,57.87,57.87,0,0,0,.62-8h24.58v55H420.68V186.63a21.14,21.14,0,0,1-11,8.85,24.19,24.19,0,0,1-15,.39,41.13,41.13,0,0,1-15-8q-7.12-5.79-11.74-17.53t-4.46-26.93A85.24,85.24,0,0,1,365.1,126a70.38,70.38,0,0,1,5.32-15.89A49.39,49.39,0,0,1,379.35,97a38.61,38.61,0,0,1,13.07-8.85,41.35,41.35,0,0,1,17-3.13,36.75,36.75,0,0,1,15.11,3.36,30.4,30.4,0,0,1,10.72,8,42.73,42.73,0,0,1,6,9.47A29.81,29.81,0,0,1,443.85,114.61Z"/><path class="cls-4" d="M475.17,197l-26.78-1.87L469.53,88.31l37.58-.94,26.46,106.78L502.41,197l-2.82-16H477.51Zm5.63-39.45,14.56-.47-7-39.14h-1.88Z"/><path class="cls-4" d="M538.57,195.56V89.71q37.74-9.7,56.21,4.39,12.38,9.56,11.43,25.68-.94,15.65-13.62,27.4l-2.82,2.34,19,40.87-30.22,6.1-10.33-37.57c-.42.1-.86.21-1.34.31a10.89,10.89,0,0,1-1.48.24,3.86,3.86,0,0,0-1.41.39l.47,36.17Zm24.9-88,.47,26.46q9.39.16,13.31-6.81a12.86,12.86,0,0,0-.08-13.7Q573.18,106.79,563.47,107.56Z"/><path class="cls-4" d="M692.32,114.77l-28.18,11.74a18,18,0,0,0,.24-1.8,21.28,21.28,0,0,0-.32-3.76,19.36,19.36,0,0,0-1.25-4.77,7.88,7.88,0,0,0-3.21-3.53,9.8,9.8,0,0,0-5.79-1.33q-6.42.47-9.55,16.36a86.27,86.27,0,0,0-.55,31.24q2.58,15.35,10.1,14.56a8.4,8.4,0,0,0,3.44-1.57,13.38,13.38,0,0,0,2.9-2.81,31.62,31.62,0,0,0,2.11-3.21c.63-1.1,1.1-2,1.41-2.59l.47-1.09,29.75,7.51A35.08,35.08,0,0,1,680,190.55a40.33,40.33,0,0,1-24.26,7.82,39.67,39.67,0,0,1-15.58-3.13,43,43,0,0,1-13.78-9.47q-6.35-6.35-10.18-17.22A80.85,80.85,0,0,1,612,143.42,83.9,83.9,0,0,1,613.49,126a63.71,63.71,0,0,1,5.33-16A50.2,50.2,0,0,1,627.9,97a39.56,39.56,0,0,1,13.15-8.85A41.29,41.29,0,0,1,658,85a36.7,36.7,0,0,1,15.1,3.36,29.66,29.66,0,0,1,10.65,8,47.16,47.16,0,0,1,6,9.47A25.73,25.73,0,0,1,692.32,114.77Z"/><path class="cls-4" d="M700.15,88.78,726,88.31l1.88,107.25-28.65.47Z"/><path class="cls-4" d="M759.49,197l-26.78-1.87L753.85,88.31l37.58-.94,26.46,106.78L786.73,197l-2.82-16H761.84Zm5.63-39.45,14.56-.47-7-39.14h-1.88Z"/><g class="cls-5"><polygon class="cls-6" points="44.92 112.9 43.05 112.9 37.41 152.51 38.12 152.49 43.05 117.9 44.92 117.9 51.08 152.07 51.97 152.04 44.92 112.9"/><polygon class="cls-6" points="59.02 191.96 56.2 176 34.12 176 31.77 191.96 5.98 190.15 5 195.09 31.77 196.96 34.12 180.99 56.2 180.99 59.02 196.96 90.17 194.15 88.96 189.26 59.02 191.96"/></g><polygon class="cls-7" points="94.46 87.84 94.4 87.84 95.81 194.62 152.17 194.62 152.17 189.62 95.81 189.62 94.46 87.84"/><g class="cls-5"><path class="cls-6" d="M199.22,148.83q-4.78-6-16.52-5.25l.1,5q11.67-.75,16.42,5.25a11.61,11.61,0,0,1,2,3.57Q202.58,153.08,199.22,148.83Z"/><path class="cls-6" d="M196.17,104.36q-3.91-5.86-13.47-5.08l.1,5q9.47-.73,13.37,5.09a12,12,0,0,1,1.61,3.47A10.1,10.1,0,0,0,196.17,104.36Z"/><path class="cls-6" d="M212.29,128.55c1.14.59,2.19,1.23,3.21,1.89q7.67-8.55,8.07-21.94a26.71,26.71,0,0,0-.07-3.6Q222.6,119.87,212.29,128.55Z"/><path class="cls-6" d="M228.26,160.49a32.68,32.68,0,0,1-3.44,12.29,26.37,26.37,0,0,1-7.13,8.77,45,45,0,0,1-9.63,5.72,47.82,47.82,0,0,1-11,3.36c-3.82.68-7.62,1.18-11.43,1.49a75.85,75.85,0,0,1-10.81.16q-5.08-.32-9-.63a50.52,50.52,0,0,1-6.1-.78l-2.35-.31v5l2.35.31a50.52,50.52,0,0,0,6.1.78q3.92.32,9,.63a75.85,75.85,0,0,0,10.81-.16c3.81-.31,7.61-.81,11.43-1.49a47.82,47.82,0,0,0,11-3.36,45,45,0,0,0,9.63-5.72,26.37,26.37,0,0,0,7.13-8.77,32.68,32.68,0,0,0,3.44-12.29,44.19,44.19,0,0,0,.22-7.56C228.43,158.77,228.36,159.62,228.26,160.49Z"/></g><g class="cls-5"><polygon class="cls-6" points="270.85 112.9 268.97 112.9 263.33 152.51 264.05 152.49 268.97 117.9 270.85 117.9 277 152.07 277.89 152.04 270.85 112.9"/><polygon class="cls-6" points="284.94 191.96 282.12 176 260.05 176 257.7 191.96 231.9 190.15 230.92 195.09 257.7 196.96 260.05 180.99 282.12 180.99 284.94 196.96 316.1 194.15 314.88 189.26 284.94 191.96"/></g><g class="cls-5"><path class="cls-6" d="M420.68,181.63a21.14,21.14,0,0,1-11,8.85,24.19,24.19,0,0,1-15,.39,41.13,41.13,0,0,1-15-8q-7.12-5.79-11.74-17.53A68.71,68.71,0,0,1,363.41,142c0,.47,0,.94,0,1.42q-.17,15.18,4.46,26.93t11.74,17.53a41.13,41.13,0,0,0,15,8,24.19,24.19,0,0,0,15-.39,21.14,21.14,0,0,0,11-8.85Z"/><path class="cls-6" d="M415.59,119.79a10.77,10.77,0,0,0-.31-3.92,38.36,38.36,0,0,0-1.41-4.62,7.19,7.19,0,0,0-3.29-3.68,10.55,10.55,0,0,0-5.87-1.25q-5.32.47-8.22,12a96.84,96.84,0,0,0-2.58,25.75v0a92.15,92.15,0,0,1,2.58-20.79q2.89-11.51,8.22-12a10.55,10.55,0,0,1,5.87,1.25,7.19,7.19,0,0,1,3.29,3.68,38.36,38.36,0,0,1,1.41,4.62,10.77,10.77,0,0,1,.31,3.92c-.15,1-.18,1.62-.07,1.72l28.33-11.9a25.74,25.74,0,0,0-1-4.58l-27.33,11.48C415.41,121.41,415.44,120.83,415.59,119.79Z"/><rect class="cls-6" x="420.68" y="193.37" width="24.11" height="5"/></g><g class="cls-5"><polygon class="cls-6" points="488.32 112.9 486.44 112.9 480.8 152.51 481.52 152.49 486.44 117.9 488.32 117.9 494.47 152.07 495.36 152.04 488.32 112.9"/><polygon class="cls-6" points="502.41 191.96 499.59 176 477.51 176 475.17 191.96 449.37 190.15 448.39 195.09 475.17 196.96 477.51 180.99 499.59 180.99 502.41 196.96 533.57 194.15 532.35 189.26 502.41 191.96"/></g><g class="cls-5"><path class="cls-6" d="M606.21,119.78a34.54,34.54,0,0,0,0-4.67q-1,15.45-13.59,27.07l-2.82,2.34,1.67,3.61,1.15-.95Q605.28,135.44,606.21,119.78Z"/><path class="cls-6" d="M577.17,108.51q-4-6.72-13.7-6l.09,5q9.63-.75,13.61,6a14.4,14.4,0,0,1,1.75,4.38A12.78,12.78,0,0,0,577.17,108.51Z"/><polygon class="cls-6" points="538.57 190.56 538.57 195.56 564.41 196.03 564.34 191.02 538.57 190.56"/><path class="cls-6" d="M578.5,191.49l-10.33-37.57c-.42.1-.86.21-1.34.31a11.15,11.15,0,0,1-1.48.24,3.86,3.86,0,0,0-1.41.39l.06,5a4.07,4.07,0,0,1,1.35-.36,11.15,11.15,0,0,0,1.48-.24c.48-.1.92-.21,1.34-.31l10.33,37.57,30.22-6.1-2.12-4.57Z"/></g><g class="cls-5"><path class="cls-6" d="M680,185.55a40.33,40.33,0,0,1-24.26,7.82,39.71,39.71,0,0,1-15.58-3.13,43,43,0,0,1-13.78-9.47q-6.35-6.35-10.18-17.22A80.17,80.17,0,0,1,612,139.27c0,1.37-.06,2.76,0,4.15a80.85,80.85,0,0,0,4.15,25.13q3.84,10.88,10.18,17.22a43,43,0,0,0,13.78,9.47,39.71,39.71,0,0,0,15.58,3.13A40.33,40.33,0,0,0,680,190.55a35.08,35.08,0,0,0,13.94-20.83l-1.43-.36A34.93,34.93,0,0,1,680,185.55Z"/><path class="cls-6" d="M664.38,119.71a21.28,21.28,0,0,0-.32-3.76,19.36,19.36,0,0,0-1.25-4.77,7.88,7.88,0,0,0-3.21-3.53,9.8,9.8,0,0,0-5.79-1.33q-6.42.47-9.55,16.36a87.7,87.7,0,0,0-1.67,19.91,88.87,88.87,0,0,1,1.67-14.91q3.12-15.89,9.55-16.36a9.8,9.8,0,0,1,5.79,1.33,7.88,7.88,0,0,1,3.21,3.53,19.36,19.36,0,0,1,1.25,4.77,21.28,21.28,0,0,1,.32,3.76,18,18,0,0,1-.24,1.8l28.18-11.74a22.08,22.08,0,0,0-.87-4.64l-27.31,11.38A18,18,0,0,0,664.38,119.71Z"/></g><polygon class="cls-7" points="699.25 191.03 699.21 196.03 727.86 195.56 727.77 190.56 699.25 191.03"/><g class="cls-5"><polygon class="cls-6" points="772.64 112.9 770.76 112.9 765.12 152.51 765.84 152.49 770.76 117.9 772.64 117.9 778.79 152.07 779.68 152.04 772.64 112.9"/><polygon class="cls-6" points="786.73 191.96 783.91 176 761.84 176 759.49 191.96 733.69 190.15 732.71 195.09 759.49 196.96 761.84 180.99 783.91 180.99 786.73 196.96 817.89 194.15 816.67 189.26 786.73 191.96"/></g></g></g></g></svg>